<svg xmlns="http://www.w3.org/2000/svg" width="1920" height="1080"><path d="M-182,-236L-35,-241L281,-255Z" fill="#961328" stroke="#961328" stroke-width="1.51"/><path d="M460,1309L291,1330L872,1301Z" fill="#927687" stroke="#927687" stroke-width="1.51"/><path d="M872,1301L291,1330L1337,1294Z" fill="#8f90ac" stroke="#8f90ac" stroke-width="1.51"/><path d="M1337,1294L291,1330L1516,1293Z" fill="#8494b6" stroke="#8494b6" stroke-width="1.51"/><path d="M1002,-236L1314,-206L1625,-209Z" fill="#ab787e" stroke="#ab787e" stroke-width="1.51"/><path d="M1664,1281L1516,1293L1882,1284Z" fill="#2c6ca3" stroke="#2c6ca3" stroke-width="1.51"/><path d="M1912,58L2059,117L2060,-99Z" fill="#8e576d" stroke="#8e576d" stroke-width="1.51"/><path d="M1625,-209L1919,-206L2074,-233Z" fill="#774767" stroke="#774767" stroke-width="1.51"/><path d="M1002,-236L1625,-209L2074,-233Z" fill="#8c6374" stroke="#8c6374" stroke-width="1.51"/><path d="M718,-256L1002,-236L2074,-233Z" fill="#a9787f" stroke="#a9787f" stroke-width="1.51"/><path d="M2057,830L2077,1033L2103,711Z" fill="#5981ab" stroke="#5981ab" stroke-width="1.51"/><path d="M1958,693L2103,711L2107,524Z" fill="#8195b9" stroke="#8195b9" stroke-width="1.51"/><path d="M1917,553L1958,693L2107,524Z" fill="#8c9fc4" stroke="#8c9fc4" stroke-width="1.51"/><path d="M2074,-233L2060,-99L2111,245Z" fill="#82455c" stroke="#82455c" stroke-width="1.51"/><path d="M2060,-99L2059,117L2111,245Z" fill="#8b5a6c" stroke="#8b5a6c" stroke-width="1.51"/><path d="M1956,409L2107,524L2114,351Z" fill="#9290ab" stroke="#9290ab" stroke-width="1.51"/><path d="M2111,245L1980,284L2114,351Z" fill="#947f92" stroke="#947f92" stroke-width="1.51"/><path d="M2077,1033L1903,1166L2131,1129Z" fill="#26649f" stroke="#26649f" stroke-width="1.51"/><path d="M1903,1166L2073,1246L2131,1129Z" fill="#1d5b9b" stroke="#1d5b9b" stroke-width="1.51"/><path d="M2103,711L2077,1033L2131,1129Z" fill="#4071a0" stroke="#4071a0" stroke-width="1.51"/><path d="M2114,351L2107,524L2131,1129Z" fill="#798bae" stroke="#798bae" stroke-width="1.51"/><path d="M2107,524L2103,711L2131,1129Z" fill="#6583aa" stroke="#6583aa" stroke-width="1.51"/><path d="M2057,830L1901,1045L2077,1033Z" fill="#437bae" stroke="#437bae" stroke-width="1.51"/><path d="M2059,117L1980,284L2111,245Z" fill="#957585" stroke="#957585" stroke-width="1.51"/><path d="M1980,284L1956,409L2114,351Z" fill="#988da5" stroke="#988da5" stroke-width="1.51"/><path d="M1910,825L1901,1045L2057,830Z" fill="#588bbc" stroke="#588bbc" stroke-width="1.51"/><path d="M1958,693L2057,830L2103,711Z" fill="#7390b8" stroke="#7390b8" stroke-width="1.51"/><path d="M1956,409L1917,553L2107,524Z" fill="#949ebf" stroke="#949ebf" stroke-width="1.51"/><path d="M1941,-104L1912,58L2060,-99Z" fill="#8c506a" stroke="#8c506a" stroke-width="1.51"/><path d="M1901,1045L1903,1166L2077,1033Z" fill="#2d71ae" stroke="#2d71ae" stroke-width="1.51"/><path d="M1919,-206L1941,-104L2060,-99Z" fill="#824261" stroke="#824261" stroke-width="1.51"/><path d="M1919,-206L2060,-99L2074,-233Z" fill="#733959" stroke="#733959" stroke-width="1.51"/><path d="M1958,693L1910,825L2057,830Z" fill="#7095c1" stroke="#7095c1" stroke-width="1.51"/><path d="M1625,-209L1801,-170L1919,-206Z" fill="#81526c" stroke="#81526c" stroke-width="1.51"/><path d="M1903,1166L1882,1284L2073,1246Z" fill="#1d5c9f" stroke="#1d5c9f" stroke-width="1.51"/><path d="M1912,58L1980,284L2059,117Z" fill="#987285" stroke="#987285" stroke-width="1.51"/><path d="M1814,977L1901,1045L1910,825Z" fill="#508dc1" stroke="#508dc1" stroke-width="1.51"/><path d="M1797,114L1798,227L1912,58Z" fill="#a37e90" stroke="#a37e90" stroke-width="1.51"/><path d="M1840,-30L1912,58L1941,-104Z" fill="#945c76" stroke="#945c76" stroke-width="1.51"/><path d="M1840,522L1917,553L1956,409Z" fill="#9ca9cc" stroke="#9ca9cc" stroke-width="1.51"/><path d="M1836,738L1910,825L1958,693Z" fill="#7ca0cd" stroke="#7ca0cd" stroke-width="1.51"/><path d="M1912,58L1798,227L1980,284Z" fill="#a28396" stroke="#a28396" stroke-width="1.51"/><path d="M1817,430L1956,409L1980,284Z" fill="#a09ebb" stroke="#a09ebb" stroke-width="1.51"/><path d="M1798,227L1817,430L1980,284Z" fill="#a49ab0" stroke="#a49ab0" stroke-width="1.51"/><path d="M1817,430L1840,522L1956,409Z" fill="#9fa9c8" stroke="#9fa9c8" stroke-width="1.51"/><path d="M1917,553L1836,738L1958,693Z" fill="#8aa7d0" stroke="#8aa7d0" stroke-width="1.51"/><path d="M1840,1248L1882,1284L1903,1166Z" fill="#2264a6" stroke="#2264a6" stroke-width="1.51"/><path d="M1840,522L1836,738L1917,553Z" fill="#93add3" stroke="#93add3" stroke-width="1.51"/><path d="M1919,-206L1801,-170L1941,-104Z" fill="#834a69" stroke="#834a69" stroke-width="1.51"/><path d="M1801,-170L1840,-30L1941,-104Z" fill="#90546f" stroke="#90546f" stroke-width="1.51"/><path d="M1901,1045L1734,1130L1903,1166Z" fill="#3278b5" stroke="#3278b5" stroke-width="1.51"/><path d="M1735,847L1814,977L1910,825Z" fill="#639cc9" stroke="#639cc9" stroke-width="1.51"/><path d="M1840,-30L1797,114L1912,58Z" fill="#9d6c81" stroke="#9d6c81" stroke-width="1.51"/><path d="M1840,1248L1664,1281L1882,1284Z" fill="#2665a1" stroke="#2665a1" stroke-width="1.51"/><path d="M1836,738L1735,847L1910,825Z" fill="#75a3cd" stroke="#75a3cd" stroke-width="1.51"/><path d="M1314,-206L1507,-181L1625,-209Z" fill="#9d6e79" stroke="#9d6e79" stroke-width="1.51"/><path d="M1814,977L1734,1130L1901,1045Z" fill="#3984bc" stroke="#3984bc" stroke-width="1.51"/><path d="M1734,1130L1840,1248L1903,1166Z" fill="#2c71b2" stroke="#2c71b2" stroke-width="1.51"/><path d="M1667,543L1836,738L1840,522Z" fill="#98b6d7" stroke="#98b6d7" stroke-width="1.51"/><path d="M1681,238L1648,380L1798,227Z" fill="#ada4b1" stroke="#ada4b1" stroke-width="1.51"/><path d="M1798,227L1648,380L1817,430Z" fill="#a9aabc" stroke="#a9aabc" stroke-width="1.51"/><path d="M1667,543L1608,741L1836,738Z" fill="#93bad9" stroke="#93bad9" stroke-width="1.51"/><path d="M1817,430L1667,543L1840,522Z" fill="#a2b7d3" stroke="#a2b7d3" stroke-width="1.51"/><path d="M1631,64L1797,114L1840,-30Z" fill="#a37685" stroke="#a37685" stroke-width="1.51"/><path d="M1616,-31L1631,64L1840,-30Z" fill="#a37482" stroke="#a37482" stroke-width="1.51"/><path d="M1801,-170L1616,-31L1840,-30Z" fill="#996275" stroke="#996275" stroke-width="1.51"/><path d="M1734,1130L1664,1281L1840,1248Z" fill="#2e72b0" stroke="#2e72b0" stroke-width="1.51"/><path d="M1608,741L1735,847L1836,738Z" fill="#80b0d4" stroke="#80b0d4" stroke-width="1.51"/><path d="M1797,114L1681,238L1798,227Z" fill="#aa919d" stroke="#aa919d" stroke-width="1.51"/><path d="M1590,1021L1734,1130L1814,977Z" fill="#418fc1" stroke="#418fc1" stroke-width="1.51"/><path d="M1735,847L1649,894L1814,977Z" fill="#63a1cb" stroke="#63a1cb" stroke-width="1.51"/><path d="M1648,380L1667,543L1817,430Z" fill="#a8b9cf" stroke="#a8b9cf" stroke-width="1.51"/><path d="M1625,-209L1616,-31L1801,-170Z" fill="#956173" stroke="#956173" stroke-width="1.51"/><path d="M1649,894L1590,1021L1814,977Z" fill="#579dc9" stroke="#579dc9" stroke-width="1.51"/><path d="M1631,64L1681,238L1797,114Z" fill="#ab8d96" stroke="#ab8d96" stroke-width="1.51"/><path d="M1587,1142L1664,1281L1734,1130Z" fill="#3a80ba" stroke="#3a80ba" stroke-width="1.51"/><path d="M1590,1021L1587,1142L1734,1130Z" fill="#478fc1" stroke="#478fc1" stroke-width="1.51"/><path d="M1608,741L1649,894L1735,847Z" fill="#7ab1d4" stroke="#7ab1d4" stroke-width="1.51"/><path d="M1532,419L1537,509L1648,380Z" fill="#b8c7d4" stroke="#b8c7d4" stroke-width="1.51"/><path d="M1516,638L1608,741L1667,543Z" fill="#a4c7e0" stroke="#a4c7e0" stroke-width="1.51"/><path d="M1648,380L1537,509L1667,543Z" fill="#b1c5d8" stroke="#b1c5d8" stroke-width="1.51"/><path d="M1513,212L1648,380L1681,238Z" fill="#b7aeb4" stroke="#b7aeb4" stroke-width="1.51"/><path d="M1631,64L1513,212L1681,238Z" fill="#b79da0" stroke="#b79da0" stroke-width="1.51"/><path d="M1507,-181L1616,-31L1625,-209Z" fill="#a06a78" stroke="#a06a78" stroke-width="1.51"/><path d="M1513,212L1532,419L1648,380Z" fill="#bcbdc4" stroke="#bcbdc4" stroke-width="1.51"/><path d="M1608,741L1498,812L1649,894Z" fill="#88bad9" stroke="#88bad9" stroke-width="1.51"/><path d="M1587,1142L1516,1293L1664,1281Z" fill="#447eb3" stroke="#447eb3" stroke-width="1.51"/><path d="M1537,509L1516,638L1667,543Z" fill="#b1cee3" stroke="#b1cee3" stroke-width="1.51"/><path d="M1083,1247L872,1301L1337,1294Z" fill="#8398bc" stroke="#8398bc" stroke-width="1.51"/><path d="M1536,1084L1587,1142L1590,1021Z" fill="#5497c6" stroke="#5497c6" stroke-width="1.51"/><path d="M1489,1013L1590,1021L1649,894Z" fill="#66a6ce" stroke="#66a6ce" stroke-width="1.51"/><path d="M1498,812L1489,1013L1649,894Z" fill="#7ab4d5" stroke="#7ab4d5" stroke-width="1.51"/><path d="M1434,119L1513,212L1631,64Z" fill="#bf9e9e" stroke="#bf9e9e" stroke-width="1.51"/><path d="M1616,-31L1434,-20L1631,64Z" fill="#b28388" stroke="#b28388" stroke-width="1.51"/><path d="M1434,-20L1434,119L1631,64Z" fill="#bd9192" stroke="#bd9192" stroke-width="1.51"/><path d="M1507,-181L1434,-20L1616,-31Z" fill="#b17980" stroke="#b17980" stroke-width="1.51"/><path d="M1516,638L1498,812L1608,741Z" fill="#a0c8e0" stroke="#a0c8e0" stroke-width="1.51"/><path d="M1513,212L1380,281L1532,419Z" fill="#c8c1c2" stroke="#c8c1c2" stroke-width="1.51"/><path d="M1536,1084L1516,1293L1587,1142Z" fill="#528dc1" stroke="#528dc1" stroke-width="1.51"/><path d="M1489,1013L1536,1084L1590,1021Z" fill="#5da1cb" stroke="#5da1cb" stroke-width="1.51"/><path d="M687,1280L460,1309L872,1301Z" fill="#94879d" stroke="#94879d" stroke-width="1.51"/><path d="M1332,934L1489,1013L1498,812Z" fill="#88bdda" stroke="#88bdda" stroke-width="1.51"/><path d="M1391,-42L1434,-20L1507,-181Z" fill="#b98084" stroke="#b98084" stroke-width="1.51"/><path d="M1297,1185L1337,1294L1516,1293Z" fill="#648db9" stroke="#648db9" stroke-width="1.51"/><path d="M1334,669L1498,812L1516,638Z" fill="#b1d4e7" stroke="#b1d4e7" stroke-width="1.51"/><path d="M1297,1185L1516,1293L1536,1084Z" fill="#6195c6" stroke="#6195c6" stroke-width="1.51"/><path d="M1489,1013L1297,1185L1536,1084Z" fill="#6aa3cd" stroke="#6aa3cd" stroke-width="1.51"/><path d="M1532,419L1362,484L1537,509Z" fill="#c4d4df" stroke="#c4d4df" stroke-width="1.51"/><path d="M1362,484L1516,638L1537,509Z" fill="#c1dae9" stroke="#c1dae9" stroke-width="1.51"/><path d="M1380,281L1362,484L1532,419Z" fill="#cdd3d6" stroke="#cdd3d6" stroke-width="1.51"/><path d="M1362,484L1334,669L1516,638Z" fill="#c4ddeb" stroke="#c4ddeb" stroke-width="1.51"/><path d="M1434,119L1380,281L1513,212Z" fill="#ccb4af" stroke="#ccb4af" stroke-width="1.51"/><path d="M1296,373L1362,484L1380,281Z" fill="#d7d7d7" stroke="#d7d7d7" stroke-width="1.51"/><path d="M1314,-206L1391,-42L1507,-181Z" fill="#b47a7f" stroke="#b47a7f" stroke-width="1.51"/><path d="M1332,934L1297,1185L1489,1013Z" fill="#77aed3" stroke="#77aed3" stroke-width="1.51"/><path d="M1334,669L1293,894L1498,812Z" fill="#abd1e5" stroke="#abd1e5" stroke-width="1.51"/><path d="M1293,894L1332,934L1498,812Z" fill="#99c8df" stroke="#99c8df" stroke-width="1.51"/><path d="M1002,-236L1237,-176L1314,-206Z" fill="#bb8083" stroke="#bb8083" stroke-width="1.51"/><path d="M1129,1237L1083,1247L1337,1294Z" fill="#7f98c0" stroke="#7f98c0" stroke-width="1.51"/><path d="M1391,-42L1322,128L1434,-20Z" fill="#c89592" stroke="#c89592" stroke-width="1.51"/><path d="M1434,-20L1322,128L1434,119Z" fill="#cb9e9a" stroke="#cb9e9a" stroke-width="1.51"/><path d="M1322,128L1380,281L1434,119Z" fill="#d2b3ac" stroke="#d2b3ac" stroke-width="1.51"/><path d="M1162,989L1297,1185L1332,934Z" fill="#88b7d7" stroke="#88b7d7" stroke-width="1.51"/><path d="M1212,679L1293,894L1334,669Z" fill="#bfdbeb" stroke="#bfdbeb" stroke-width="1.51"/><path d="M1237,-176L1155,-30L1391,-42Z" fill="#cc8b89" stroke="#cc8b89" stroke-width="1.51"/><path d="M1155,-30L1223,57L1391,-42Z" fill="#d49893" stroke="#d49893" stroke-width="1.51"/><path d="M1314,-206L1237,-176L1391,-42Z" fill="#be8082" stroke="#be8082" stroke-width="1.51"/><path d="M1223,57L1322,128L1391,-42Z" fill="#d29e98" stroke="#d29e98" stroke-width="1.51"/><path d="M1212,679L1173,852L1293,894Z" fill="#bad9ea" stroke="#bad9ea" stroke-width="1.51"/><path d="M1131,218L1156,334L1296,373Z" fill="#ead5cd" stroke="#ead5cd" stroke-width="1.51"/><path d="M1162,989L1145,1109L1297,1185Z" fill="#8cb3d6" stroke="#8cb3d6" stroke-width="1.51"/><path d="M1212,679L1334,669L1362,484Z" fill="#cfe3ee" stroke="#cfe3ee" stroke-width="1.51"/><path d="M1136,559L1212,679L1362,484Z" fill="#dce9f2" stroke="#dce9f2" stroke-width="1.51"/><path d="M1322,128L1131,218L1380,281Z" fill="#e0c0b5" stroke="#e0c0b5" stroke-width="1.51"/><path d="M1131,218L1296,373L1380,281Z" fill="#e1cec7" stroke="#e1cec7" stroke-width="1.51"/><path d="M1296,373L1136,559L1362,484Z" fill="#dee4e7" stroke="#dee4e7" stroke-width="1.51"/><path d="M1293,894L1162,989L1332,934Z" fill="#9cc6df" stroke="#9cc6df" stroke-width="1.51"/><path d="M1297,1185L1129,1237L1337,1294Z" fill="#7898c3" stroke="#7898c3" stroke-width="1.51"/><path d="M1086,442L1136,559L1296,373Z" fill="#e9e8e8" stroke="#e9e8e8" stroke-width="1.51"/><path d="M1223,57L1131,218L1322,128Z" fill="#e1b5aa" stroke="#e1b5aa" stroke-width="1.51"/><path d="M1156,334L1086,442L1296,373Z" fill="#eae2dd" stroke="#eae2dd" stroke-width="1.51"/><path d="M1173,852L1162,989L1293,894Z" fill="#a9cee3" stroke="#a9cee3" stroke-width="1.51"/><path d="M1145,1109L1129,1237L1297,1185Z" fill="#87a7d0" stroke="#87a7d0" stroke-width="1.51"/><path d="M638,1279L460,1309L687,1280Z" fill="#958094" stroke="#958094" stroke-width="1.51"/><path d="M1056,-91L1155,-30L1237,-176Z" fill="#d58e8a" stroke="#d58e8a" stroke-width="1.51"/><path d="M1002,-236L1056,-91L1237,-176Z" fill="#ca8786" stroke="#ca8786" stroke-width="1.51"/><path d="M1045,863L1173,852L1212,679Z" fill="#c4deec" stroke="#c4deec" stroke-width="1.51"/><path d="M1155,-30L1011,65L1223,57Z" fill="#e2a49b" stroke="#e2a49b" stroke-width="1.51"/><path d="M1011,65L1131,218L1223,57Z" fill="#e8b4a8" stroke="#e8b4a8" stroke-width="1.51"/><path d="M1136,559L980,646L1212,679Z" fill="#e2edf3" stroke="#e2edf3" stroke-width="1.51"/><path d="M980,646L1045,863L1212,679Z" fill="#d6e7f1" stroke="#d6e7f1" stroke-width="1.51"/><path d="M281,-255L462,-222L718,-256Z" fill="#b75c50" stroke="#b75c50" stroke-width="1.51"/><path d="M1039,1145L1129,1237L1145,1109Z" fill="#8facd2" stroke="#8facd2" stroke-width="1.51"/><path d="M1131,218L1027,262L1156,334Z" fill="#f0d3c6" stroke="#f0d3c6" stroke-width="1.51"/><path d="M1048,1038L1145,1109L1162,989Z" fill="#97bcda" stroke="#97bcda" stroke-width="1.51"/><path d="M1045,863L1162,989L1173,852Z" fill="#b2d2e6" stroke="#b2d2e6" stroke-width="1.51"/><path d="M1045,863L1048,1038L1162,989Z" fill="#a9cae1" stroke="#a9cae1" stroke-width="1.51"/><path d="M1039,1145L1083,1247L1129,1237Z" fill="#8da5cd" stroke="#8da5cd" stroke-width="1.51"/><path d="M1056,-91L1011,65L1155,-30Z" fill="#e19d95" stroke="#e19d95" stroke-width="1.51"/><path d="M1027,262L1086,442L1156,334Z" fill="#f1dfd7" stroke="#f1dfd7" stroke-width="1.51"/><path d="M1011,65L1027,262L1131,218Z" fill="#f1c5b5" stroke="#f1c5b5" stroke-width="1.51"/><path d="M1086,442L981,520L1136,559Z" fill="#f0f0f1" stroke="#f0f0f1" stroke-width="1.51"/><path d="M1048,1038L1039,1145L1145,1109Z" fill="#97b6d7" stroke="#97b6d7" stroke-width="1.51"/><path d="M981,520L980,646L1136,559Z" fill="#eef3f5" stroke="#eef3f5" stroke-width="1.51"/><path d="M1011,65L912,237L1027,262Z" fill="#f6c8b7" stroke="#f6c8b7" stroke-width="1.51"/><path d="M980,646L878,713L1045,863Z" fill="#ddeaf2" stroke="#ddeaf2" stroke-width="1.51"/><path d="M912,508L981,520L1086,442Z" fill="#f6f2ef" stroke="#f6f2ef" stroke-width="1.51"/><path d="M844,437L912,508L1086,442Z" fill="#f9f0ea" stroke="#f9f0ea" stroke-width="1.51"/><path d="M1027,262L844,437L1086,442Z" fill="#f9e8df" stroke="#f9e8df" stroke-width="1.51"/><path d="M1045,863L861,879L1048,1038Z" fill="#b8d4e6" stroke="#b8d4e6" stroke-width="1.51"/><path d="M1039,1145L887,1175L1083,1247Z" fill="#96abd2" stroke="#96abd2" stroke-width="1.51"/><path d="M887,1175L872,1301L1083,1247Z" fill="#94a3c6" stroke="#94a3c6" stroke-width="1.51"/><path d="M912,237L844,437L1027,262Z" fill="#fbdcce" stroke="#fbdcce" stroke-width="1.51"/><path d="M878,713L861,879L1045,863Z" fill="#d0e1eb" stroke="#d0e1eb" stroke-width="1.51"/><path d="M887,1175L1039,1145L1048,1038Z" fill="#9cb6d7" stroke="#9cb6d7" stroke-width="1.51"/><path d="M861,879L841,995L1048,1038Z" fill="#b4cbde" stroke="#b4cbde" stroke-width="1.51"/><path d="M1002,-236L903,-156L1056,-91Z" fill="#d38b88" stroke="#d38b88" stroke-width="1.51"/><path d="M870,-49L1011,65L1056,-91Z" fill="#e7a095" stroke="#e7a095" stroke-width="1.51"/><path d="M903,-156L870,-49L1056,-91Z" fill="#e2938b" stroke="#e2938b" stroke-width="1.51"/><path d="M841,995L887,1175L1048,1038Z" fill="#a3bcd7" stroke="#a3bcd7" stroke-width="1.51"/><path d="M853,51L912,237L1011,65Z" fill="#f3b9a8" stroke="#f3b9a8" stroke-width="1.51"/><path d="M912,508L980,646L981,520Z" fill="#f5f6f7" stroke="#f5f6f7" stroke-width="1.51"/><path d="M718,-256L903,-156L1002,-236Z" fill="#c7827e" stroke="#c7827e" stroke-width="1.51"/><path d="M870,-49L853,51L1011,65Z" fill="#eca597" stroke="#eca597" stroke-width="1.51"/><path d="M88,1297L-182,1320L291,1330Z" fill="#7d3d56" stroke="#7d3d56" stroke-width="1.51"/><path d="M776,587L878,713L912,508Z" fill="#f2eeeb" stroke="#f2eeeb" stroke-width="1.51"/><path d="M912,508L878,713L980,646Z" fill="#eef1f2" stroke="#eef1f2" stroke-width="1.51"/><path d="M732,83L731,225L853,51Z" fill="#f3b199" stroke="#f3b199" stroke-width="1.51"/><path d="M787,844L861,879L878,713Z" fill="#d4dde2" stroke="#d4dde2" stroke-width="1.51"/><path d="M841,995L756,1153L887,1175Z" fill="#a4b2cb" stroke="#a4b2cb" stroke-width="1.51"/><path d="M728,337L844,437L912,237Z" fill="#fcdbc9" stroke="#fcdbc9" stroke-width="1.51"/><path d="M731,225L728,337L912,237Z" fill="#fbcdb7" stroke="#fbcdb7" stroke-width="1.51"/><path d="M853,51L731,225L912,237Z" fill="#f7bea8" stroke="#f7bea8" stroke-width="1.51"/><path d="M844,437L776,587L912,508Z" fill="#faede7" stroke="#faede7" stroke-width="1.51"/><path d="M756,1153L872,1301L887,1175Z" fill="#9ba3c4" stroke="#9ba3c4" stroke-width="1.51"/><path d="M714,-84L870,-49L903,-156Z" fill="#e18d81" stroke="#e18d81" stroke-width="1.51"/><path d="M718,-256L714,-84L903,-156Z" fill="#d38178" stroke="#d38178" stroke-width="1.51"/><path d="M740,690L787,844L878,713Z" fill="#e0e0e1" stroke="#e0e0e1" stroke-width="1.51"/><path d="M776,587L740,690L878,713Z" fill="#ece7e4" stroke="#ece7e4" stroke-width="1.51"/><path d="M729,1002L756,1153L841,995Z" fill="#aab7ca" stroke="#aab7ca" stroke-width="1.51"/><path d="M756,1153L687,1280L872,1301Z" fill="#9998b5" stroke="#9998b5" stroke-width="1.51"/><path d="M787,844L841,995L861,879Z" fill="#c3d1db" stroke="#c3d1db" stroke-width="1.51"/><path d="M714,-84L853,51L870,-49Z" fill="#e79888" stroke="#e79888" stroke-width="1.51"/><path d="M714,-84L732,83L853,51Z" fill="#eb9c89" stroke="#eb9c89" stroke-width="1.51"/><path d="M787,844L729,1002L841,995Z" fill="#bcc8d3" stroke="#bcc8d3" stroke-width="1.51"/><path d="M728,337L776,587L844,437Z" fill="#fce5d8" stroke="#fce5d8" stroke-width="1.51"/><path d="M729,1002L635,1142L756,1153Z" fill="#a8abbf" stroke="#a8abbf" stroke-width="1.51"/><path d="M728,337L587,546L776,587Z" fill="#fce2d4" stroke="#fce2d4" stroke-width="1.51"/><path d="M628,1008L729,1002L787,844Z" fill="#bdc3cc" stroke="#bdc3cc" stroke-width="1.51"/><path d="M550,794L628,1008L787,844Z" fill="#cbc7c8" stroke="#cbc7c8" stroke-width="1.51"/><path d="M740,690L550,794L787,844Z" fill="#ddd6d4" stroke="#ddd6d4" stroke-width="1.51"/><path d="M574,337L587,546L728,337Z" fill="#fcd3be" stroke="#fcd3be" stroke-width="1.51"/><path d="M600,668L740,690L776,587Z" fill="#efe2da" stroke="#efe2da" stroke-width="1.51"/><path d="M587,546L600,668L776,587Z" fill="#f4ded4" stroke="#f4ded4" stroke-width="1.51"/><path d="M541,-161L714,-84L718,-256Z" fill="#d0776a" stroke="#d0776a" stroke-width="1.51"/><path d="M628,1008L635,1142L729,1002Z" fill="#acaebd" stroke="#acaebd" stroke-width="1.51"/><path d="M605,72L731,225L732,83Z" fill="#f3ac92" stroke="#f3ac92" stroke-width="1.51"/><path d="M714,-84L605,72L732,83Z" fill="#ea9780" stroke="#ea9780" stroke-width="1.51"/><path d="M600,668L550,794L740,690Z" fill="#e7d5ce" stroke="#e7d5ce" stroke-width="1.51"/><path d="M635,1142L687,1280L756,1153Z" fill="#a19cb7" stroke="#a19cb7" stroke-width="1.51"/><path d="M576,231L574,337L728,337Z" fill="#fbc4aa" stroke="#fbc4aa" stroke-width="1.51"/><path d="M576,231L728,337L731,225Z" fill="#fac4a9" stroke="#fac4a9" stroke-width="1.51"/><path d="M605,72L576,231L731,225Z" fill="#f5b093" stroke="#f5b093" stroke-width="1.51"/><path d="M635,1142L638,1279L687,1280Z" fill="#9d90a9" stroke="#9d90a9" stroke-width="1.51"/><path d="M546,-64L605,72L714,-84Z" fill="#e48772" stroke="#e48772" stroke-width="1.51"/><path d="M541,-161L546,-64L714,-84Z" fill="#dc7866" stroke="#dc7866" stroke-width="1.51"/><path d="M462,-222L541,-161L718,-256Z" fill="#c2695c" stroke="#c2695c" stroke-width="1.51"/><path d="M574,337L425,362L587,546Z" fill="#fbc9b1" stroke="#fbc9b1" stroke-width="1.51"/><path d="M550,794L418,1001L628,1008Z" fill="#c1b2b2" stroke="#c1b2b2" stroke-width="1.51"/><path d="M628,1008L460,1127L635,1142Z" fill="#aa9ead" stroke="#aa9ead" stroke-width="1.51"/><path d="M635,1142L460,1127L638,1279Z" fill="#a392a8" stroke="#a392a8" stroke-width="1.51"/><path d="M460,1127L460,1309L638,1279Z" fill="#9c8295" stroke="#9c8295" stroke-width="1.51"/><path d="M418,1001L460,1127L628,1008Z" fill="#ae9da6" stroke="#ae9da6" stroke-width="1.51"/><path d="M391,846L418,1001L550,794Z" fill="#cbb0ac" stroke="#cbb0ac" stroke-width="1.51"/><path d="M406,47L446,262L576,231Z" fill="#f29f7c" stroke="#f29f7c" stroke-width="1.51"/><path d="M421,706L550,794L600,668Z" fill="#e5c9bd" stroke="#e5c9bd" stroke-width="1.51"/><path d="M587,546L385,588L600,668Z" fill="#f3cfc0" stroke="#f3cfc0" stroke-width="1.51"/><path d="M385,588L421,706L600,668Z" fill="#edc7b7" stroke="#edc7b7" stroke-width="1.51"/><path d="M546,-64L425,-13L605,72Z" fill="#e38068" stroke="#e38068" stroke-width="1.51"/><path d="M425,-13L406,47L605,72Z" fill="#e58266" stroke="#e58266" stroke-width="1.51"/><path d="M406,47L576,231L605,72Z" fill="#ee9879" stroke="#ee9879" stroke-width="1.51"/><path d="M425,362L385,588L587,546Z" fill="#f9c8b4" stroke="#f9c8b4" stroke-width="1.51"/><path d="M446,262L574,337L576,231Z" fill="#f8b697" stroke="#f8b697" stroke-width="1.51"/><path d="M446,262L425,362L574,337Z" fill="#f8b799" stroke="#f8b799" stroke-width="1.51"/><path d="M462,-222L425,-13L541,-161Z" fill="#d26553" stroke="#d26553" stroke-width="1.51"/><path d="M541,-161L425,-13L546,-64Z" fill="#da705c" stroke="#da705c" stroke-width="1.51"/><path d="M421,706L391,846L550,794Z" fill="#dbbbb1" stroke="#dbbbb1" stroke-width="1.51"/><path d="M300,340L244,557L385,588Z" fill="#f1b2a1" stroke="#f1b2a1" stroke-width="1.51"/><path d="M230,90L229,246L406,47Z" fill="#e2795f" stroke="#e2795f" stroke-width="1.51"/><path d="M300,340L385,588L425,362Z" fill="#f5b59f" stroke="#f5b59f" stroke-width="1.51"/><path d="M406,47L229,246L446,262Z" fill="#eb8f70" stroke="#eb8f70" stroke-width="1.51"/><path d="M283,1140L291,1330L460,1309Z" fill="#94687c" stroke="#94687c" stroke-width="1.51"/><path d="M283,1140L460,1309L460,1127Z" fill="#a07b90" stroke="#a07b90" stroke-width="1.51"/><path d="M418,1001L283,1140L460,1127Z" fill="#a88895" stroke="#a88895" stroke-width="1.51"/><path d="M261,-31L425,-13L462,-222Z" fill="#d25e4d" stroke="#d25e4d" stroke-width="1.51"/><path d="M281,-255L261,-31L462,-222Z" fill="#bf4c43" stroke="#bf4c43" stroke-width="1.51"/><path d="M391,846L303,964L418,1001Z" fill="#bd9d9e" stroke="#bd9d9e" stroke-width="1.51"/><path d="M229,246L300,340L446,262Z" fill="#ee9b7f" stroke="#ee9b7f" stroke-width="1.51"/><path d="M300,340L425,362L446,262Z" fill="#f4ab8e" stroke="#f4ab8e" stroke-width="1.51"/><path d="M303,964L283,1140L418,1001Z" fill="#ab8992" stroke="#ab8992" stroke-width="1.51"/><path d="M385,588L241,635L421,706Z" fill="#e9b6a9" stroke="#e9b6a9" stroke-width="1.51"/><path d="M236,840L391,846L421,706Z" fill="#d4aba4" stroke="#d4aba4" stroke-width="1.51"/><path d="M241,635L236,840L421,706Z" fill="#ddaba2" stroke="#ddaba2" stroke-width="1.51"/><path d="M261,-31L406,47L425,-13Z" fill="#da6b56" stroke="#da6b56" stroke-width="1.51"/><path d="M261,-31L230,90L406,47Z" fill="#d96752" stroke="#d96752" stroke-width="1.51"/><path d="M178,408L244,557L300,340Z" fill="#eea390" stroke="#eea390" stroke-width="1.51"/><path d="M236,840L303,964L391,846Z" fill="#c49d9b" stroke="#c49d9b" stroke-width="1.51"/><path d="M244,557L241,635L385,588Z" fill="#ecb0a4" stroke="#ecb0a4" stroke-width="1.51"/><path d="M132,656L236,840L241,635Z" fill="#db9f98" stroke="#db9f98" stroke-width="1.51"/><path d="M137,-166L155,-53L261,-31Z" fill="#c4413b" stroke="#c4413b" stroke-width="1.51"/><path d="M-35,-241L137,-166L281,-255Z" fill="#a32930" stroke="#a32930" stroke-width="1.51"/><path d="M137,-166L261,-31L281,-255Z" fill="#bc3d3a" stroke="#bc3d3a" stroke-width="1.51"/><path d="M283,1140L88,1297L291,1330Z" fill="#8f596f" stroke="#8f596f" stroke-width="1.51"/><path d="M236,840L90,997L303,964Z" fill="#b7888c" stroke="#b7888c" stroke-width="1.51"/><path d="M100,1091L283,1140L303,964Z" fill="#a47784" stroke="#a47784" stroke-width="1.51"/><path d="M90,997L100,1091L303,964Z" fill="#a67782" stroke="#a67782" stroke-width="1.51"/><path d="M229,246L178,408L300,340Z" fill="#eb977e" stroke="#eb977e" stroke-width="1.51"/><path d="M111,856L90,997L236,840Z" fill="#ba8689" stroke="#ba8689" stroke-width="1.51"/><path d="M100,1091L88,1297L283,1140Z" fill="#965f78" stroke="#965f78" stroke-width="1.51"/><path d="M140,128L229,246L230,90Z" fill="#de735b" stroke="#de735b" stroke-width="1.51"/><path d="M136,256L178,408L229,246Z" fill="#e68c75" stroke="#e68c75" stroke-width="1.51"/><path d="M132,656L111,856L236,840Z" fill="#cd9490" stroke="#cd9490" stroke-width="1.51"/><path d="M155,-53L230,90L261,-31Z" fill="#d05546" stroke="#d05546" stroke-width="1.51"/><path d="M38,1240L88,1297L100,1091Z" fill="#8f516e" stroke="#8f516e" stroke-width="1.51"/><path d="M140,128L136,256L229,246Z" fill="#e17b61" stroke="#e17b61" stroke-width="1.51"/><path d="M155,-53L140,128L230,90Z" fill="#d25a49" stroke="#d25a49" stroke-width="1.51"/><path d="M103,587L132,656L241,635Z" fill="#e19f96" stroke="#e19f96" stroke-width="1.51"/><path d="M103,587L241,635L244,557Z" fill="#e7a49a" stroke="#e7a49a" stroke-width="1.51"/><path d="M178,408L103,587L244,557Z" fill="#eaa395" stroke="#eaa395" stroke-width="1.51"/><path d="M11,648L111,856L132,656Z" fill="#d2918e" stroke="#d2918e" stroke-width="1.51"/><path d="M-39,48L140,128L155,-53Z" fill="#ca4c41" stroke="#ca4c41" stroke-width="1.51"/><path d="M136,256L41,410L178,408Z" fill="#e58d7a" stroke="#e58d7a" stroke-width="1.51"/><path d="M41,410L103,587L178,408Z" fill="#e6978a" stroke="#e6978a" stroke-width="1.51"/><path d="M41,410L-9,519L103,587Z" fill="#e29389" stroke="#e29389" stroke-width="1.51"/><path d="M-62,238L136,256L140,128Z" fill="#da6f59" stroke="#da6f59" stroke-width="1.51"/><path d="M137,-166L-50,-23L155,-53Z" fill="#bd3234" stroke="#bd3234" stroke-width="1.51"/><path d="M-50,-23L-39,48L155,-53Z" fill="#c03937" stroke="#c03937" stroke-width="1.51"/><path d="M11,648L-44,882L111,856Z" fill="#c38385" stroke="#c38385" stroke-width="1.51"/><path d="M-62,238L41,410L136,256Z" fill="#dd7b69" stroke="#dd7b69" stroke-width="1.51"/><path d="M-35,-241L-50,-23L137,-166Z" fill="#ae1a2b" stroke="#ae1a2b" stroke-width="1.51"/><path d="M-39,48L-62,238L140,128Z" fill="#cf584a" stroke="#cf584a" stroke-width="1.51"/><path d="M4,1092L38,1240L100,1091Z" fill="#935871" stroke="#935871" stroke-width="1.51"/><path d="M-44,882L90,997L111,856Z" fill="#b27a81" stroke="#b27a81" stroke-width="1.51"/><path d="M103,587L11,648L132,656Z" fill="#dc958f" stroke="#dc958f" stroke-width="1.51"/><path d="M-44,882L-42,995L90,997Z" fill="#a76e79" stroke="#a76e79" stroke-width="1.51"/><path d="M90,997L4,1092L100,1091Z" fill="#9b6678" stroke="#9b6678" stroke-width="1.51"/><path d="M-9,519L11,648L103,587Z" fill="#dd928c" stroke="#dd928c" stroke-width="1.51"/><path d="M38,1240L-182,1320L88,1297Z" fill="#7b3a57" stroke="#7b3a57" stroke-width="1.51"/><path d="M-143,796L-44,882L11,648Z" fill="#ba7e82" stroke="#ba7e82" stroke-width="1.51"/><path d="M-42,995L4,1092L90,997Z" fill="#9c6675" stroke="#9c6675" stroke-width="1.51"/><path d="M-133,141L-62,238L-39,48Z" fill="#c15348" stroke="#c15348" stroke-width="1.51"/><path d="M-141,-94L-50,-23L-35,-241Z" fill="#a61429" stroke="#a61429" stroke-width="1.51"/><path d="M4,1092L-111,1098L38,1240Z" fill="#8d516c" stroke="#8d516c" stroke-width="1.51"/><path d="M-181,400L-9,519L41,410Z" fill="#d6857c" stroke="#d6857c" stroke-width="1.51"/><path d="M-62,238L-181,400L41,410Z" fill="#d17a6d" stroke="#d17a6d" stroke-width="1.51"/><path d="M-132,633L-143,796L11,648Z" fill="#c18385" stroke="#c18385" stroke-width="1.51"/><path d="M-111,1098L-182,1320L38,1240Z" fill="#7a4263" stroke="#7a4263" stroke-width="1.51"/><path d="M-133,141L-119,203L-62,238Z" fill="#c15c4f" stroke="#c15c4f" stroke-width="1.51"/><path d="M-181,400L-180,508L-9,519Z" fill="#c9827d" stroke="#c9827d" stroke-width="1.51"/><path d="M-42,995L-111,1098L4,1092Z" fill="#8f5c70" stroke="#8f5c70" stroke-width="1.51"/><path d="M-9,519L-132,633L11,648Z" fill="#d28a87" stroke="#d28a87" stroke-width="1.51"/><path d="M-180,508L-132,633L-9,519Z" fill="#cb8886" stroke="#cb8886" stroke-width="1.51"/><path d="M-44,882L-142,980L-42,995Z" fill="#9b6a77" stroke="#9b6a77" stroke-width="1.51"/><path d="M-142,980L-111,1098L-42,995Z" fill="#8a5e71" stroke="#8a5e71" stroke-width="1.51"/><path d="M-182,-236L-141,-94L-35,-241Z" fill="#8e0b26" stroke="#8e0b26" stroke-width="1.51"/><path d="M-119,203L-181,400L-62,238Z" fill="#c46b5e" stroke="#c46b5e" stroke-width="1.51"/><path d="M-50,-23L-133,141L-39,48Z" fill="#b9403b" stroke="#b9403b" stroke-width="1.51"/><path d="M-141,-94L-133,141L-50,-23Z" fill="#ae3435" stroke="#ae3435" stroke-width="1.51"/><path d="M-143,796L-142,980L-44,882Z" fill="#a0717a" stroke="#a0717a" stroke-width="1.51"/><path d="M-142,980L-182,1320L-111,1098Z" fill="#784b69" stroke="#784b69" stroke-width="1.51"/><path d="M-133,141L-181,400L-119,203Z" fill="#bf6458" stroke="#bf6458" stroke-width="1.51"/><path d="M-141,-94L-182,-236L-133,141Z" fill="#a0212d" stroke="#a0212d" stroke-width="1.51"/><path d="M-182,-236L-181,400L-133,141Z" fill="#af4540" stroke="#af4540" stroke-width="1.51"/><path d="M-180,508L-143,796L-132,633Z" fill="#ba8084" stroke="#ba8084" stroke-width="1.51"/><path d="M-143,796L-180,508L-142,980Z" fill="#ac797f" stroke="#ac797f" stroke-width="1.51"/><path d="M-180,508L-182,1320L-142,980Z" fill="#8d6675" stroke="#8d6675" stroke-width="1.51"/></svg>