<svg xmlns="http://www.w3.org/2000/svg" width="1920" height="1080"><path d="M-182,-236L-35,-241L281,-255Z" fill="#c52628" stroke="#c52628" stroke-width="1.51"/><path d="M460,1309L291,1330L872,1301Z" fill="#aa7f8b" stroke="#aa7f8b" stroke-width="1.51"/><path d="M872,1301L291,1330L1337,1294Z" fill="#a799a6" stroke="#a799a6" stroke-width="1.51"/><path d="M1337,1294L291,1330L1516,1293Z" fill="#9f9fbc" stroke="#9f9fbc" stroke-width="1.51"/><path d="M1002,-236L1314,-206L1625,-209Z" fill="#d18b86" stroke="#d18b86" stroke-width="1.51"/><path d="M1664,1281L1516,1293L1882,1284Z" fill="#5a7eba" stroke="#5a7eba" stroke-width="1.51"/><path d="M1912,58L2059,117L2060,-99Z" fill="#ac6376" stroke="#ac6376" stroke-width="1.51"/><path d="M1625,-209L1919,-206L2074,-233Z" fill="#9d596e" stroke="#9d596e" stroke-width="1.51"/><path d="M1002,-236L1625,-209L2074,-233Z" fill="#b8797c" stroke="#b8797c" stroke-width="1.51"/><path d="M718,-256L1002,-236L2074,-233Z" fill="#d28b87" stroke="#d28b87" stroke-width="1.51"/><path d="M2057,830L2077,1033L2103,711Z" fill="#7890c5" stroke="#7890c5" stroke-width="1.51"/><path d="M1958,693L2103,711L2107,524Z" fill="#9aa0c3" stroke="#9aa0c3" stroke-width="1.51"/><path d="M1917,553L1958,693L2107,524Z" fill="#a3aabf" stroke="#a3aabf" stroke-width="1.51"/><path d="M2074,-233L2060,-99L2111,245Z" fill="#a4506d" stroke="#a4506d" stroke-width="1.51"/><path d="M2060,-99L2059,117L2111,245Z" fill="#aa6479" stroke="#aa6479" stroke-width="1.51"/><path d="M1956,409L2107,524L2114,351Z" fill="#a899a4" stroke="#a899a4" stroke-width="1.51"/><path d="M2111,245L1980,284L2114,351Z" fill="#aa8791" stroke="#aa8791" stroke-width="1.51"/><path d="M2077,1033L1903,1166L2131,1129Z" fill="#5074b5" stroke="#5074b5" stroke-width="1.51"/><path d="M1903,1166L2073,1246L2131,1129Z" fill="#4569ae" stroke="#4569ae" stroke-width="1.51"/><path d="M2103,711L2077,1033L2131,1129Z" fill="#6681bc" stroke="#6681bc" stroke-width="1.51"/><path d="M2114,351L2107,524L2131,1129Z" fill="#9597c4" stroke="#9597c4" stroke-width="1.51"/><path d="M2107,524L2103,711L2131,1129Z" fill="#8390c6" stroke="#8390c6" stroke-width="1.51"/><path d="M2057,830L1901,1045L2077,1033Z" fill="#678cc2" stroke="#678cc2" stroke-width="1.51"/><path d="M2059,117L1980,284L2111,245Z" fill="#ac7e87" stroke="#ac7e87" stroke-width="1.51"/><path d="M1980,284L1956,409L2114,351Z" fill="#ab979c" stroke="#ab979c" stroke-width="1.51"/><path d="M1910,825L1901,1045L2057,830Z" fill="#759cca" stroke="#759cca" stroke-width="1.51"/><path d="M1958,693L2057,830L2103,711Z" fill="#8d9ecd" stroke="#8d9ecd" stroke-width="1.51"/><path d="M1956,409L1917,553L2107,524Z" fill="#aaa9b1" stroke="#aaa9b1" stroke-width="1.51"/><path d="M1941,-104L1912,58L2060,-99Z" fill="#aa5e71" stroke="#aa5e71" stroke-width="1.51"/><path d="M1901,1045L1903,1166L2077,1033Z" fill="#5683bc" stroke="#5683bc" stroke-width="1.51"/><path d="M1919,-206L1941,-104L2060,-99Z" fill="#a2526a" stroke="#a2526a" stroke-width="1.51"/><path d="M1919,-206L2060,-99L2074,-233Z" fill="#994767" stroke="#994767" stroke-width="1.51"/><path d="M1958,693L1910,825L2057,830Z" fill="#88a4cf" stroke="#88a4cf" stroke-width="1.51"/><path d="M1625,-209L1801,-170L1919,-206Z" fill="#a96673" stroke="#a96673" stroke-width="1.51"/><path d="M1903,1166L1882,1284L2073,1246Z" fill="#436aaf" stroke="#436aaf" stroke-width="1.51"/><path d="M1912,58L1980,284L2059,117Z" fill="#b07d85" stroke="#b07d85" stroke-width="1.51"/><path d="M1814,977L1901,1045L1910,825Z" fill="#71a1cc" stroke="#71a1cc" stroke-width="1.51"/><path d="M1797,114L1798,227L1912,58Z" fill="#bb8d8b" stroke="#bb8d8b" stroke-width="1.51"/><path d="M1840,-30L1912,58L1941,-104Z" fill="#b06c78" stroke="#b06c78" stroke-width="1.51"/><path d="M1840,522L1917,553L1956,409Z" fill="#adb5b6" stroke="#adb5b6" stroke-width="1.51"/><path d="M1836,738L1910,825L1958,693Z" fill="#90b1d5" stroke="#90b1d5" stroke-width="1.51"/><path d="M1912,58L1798,227L1980,284Z" fill="#b58f8d" stroke="#b58f8d" stroke-width="1.51"/><path d="M1817,430L1956,409L1980,284Z" fill="#afa9a5" stroke="#afa9a5" stroke-width="1.51"/><path d="M1798,227L1817,430L1980,284Z" fill="#b5a6a0" stroke="#b5a6a0" stroke-width="1.51"/><path d="M1817,430L1840,522L1956,409Z" fill="#b1b5b2" stroke="#b1b5b2" stroke-width="1.51"/><path d="M1917,553L1836,738L1958,693Z" fill="#9eb5d0" stroke="#9eb5d0" stroke-width="1.51"/><path d="M1840,1248L1882,1284L1903,1166Z" fill="#4973b4" stroke="#4973b4" stroke-width="1.51"/><path d="M1840,522L1836,738L1917,553Z" fill="#a8bcca" stroke="#a8bcca" stroke-width="1.51"/><path d="M1919,-206L1801,-170L1941,-104Z" fill="#a55c6e" stroke="#a55c6e" stroke-width="1.51"/><path d="M1801,-170L1840,-30L1941,-104Z" fill="#ae6572" stroke="#ae6572" stroke-width="1.51"/><path d="M1901,1045L1734,1130L1903,1166Z" fill="#5a8cc0" stroke="#5a8cc0" stroke-width="1.51"/><path d="M1735,847L1814,977L1910,825Z" fill="#82b0d4" stroke="#82b0d4" stroke-width="1.51"/><path d="M1840,-30L1797,114L1912,58Z" fill="#b97c81" stroke="#b97c81" stroke-width="1.51"/><path d="M1840,1248L1664,1281L1882,1284Z" fill="#5076b5" stroke="#5076b5" stroke-width="1.51"/><path d="M1836,738L1735,847L1910,825Z" fill="#8eb5d7" stroke="#8eb5d7" stroke-width="1.51"/><path d="M1314,-206L1507,-181L1625,-209Z" fill="#c58381" stroke="#c58381" stroke-width="1.51"/><path d="M1814,977L1734,1130L1901,1045Z" fill="#659ac8" stroke="#659ac8" stroke-width="1.51"/><path d="M1734,1130L1840,1248L1903,1166Z" fill="#5283bb" stroke="#5283bb" stroke-width="1.51"/><path d="M1667,543L1836,738L1840,522Z" fill="#b0c6cd" stroke="#b0c6cd" stroke-width="1.51"/><path d="M1681,238L1648,380L1798,227Z" fill="#c3b5a4" stroke="#c3b5a4" stroke-width="1.51"/><path d="M1798,227L1648,380L1817,430Z" fill="#bdb8aa" stroke="#bdb8aa" stroke-width="1.51"/><path d="M1667,543L1608,741L1836,738Z" fill="#aecdde" stroke="#aecdde" stroke-width="1.51"/><path d="M1817,430L1667,543L1840,522Z" fill="#b8c5be" stroke="#b8c5be" stroke-width="1.51"/><path d="M1631,64L1797,114L1840,-30Z" fill="#c18886" stroke="#c18886" stroke-width="1.51"/><path d="M1616,-31L1631,64L1840,-30Z" fill="#c48884" stroke="#c48884" stroke-width="1.51"/><path d="M1801,-170L1616,-31L1840,-30Z" fill="#ba767a" stroke="#ba767a" stroke-width="1.51"/><path d="M1734,1130L1664,1281L1840,1248Z" fill="#5785bd" stroke="#5785bd" stroke-width="1.51"/><path d="M1608,741L1735,847L1836,738Z" fill="#9cc4de" stroke="#9cc4de" stroke-width="1.51"/><path d="M1797,114L1681,238L1798,227Z" fill="#c0a195" stroke="#c0a195" stroke-width="1.51"/><path d="M1590,1021L1734,1130L1814,977Z" fill="#70a7ce" stroke="#70a7ce" stroke-width="1.51"/><path d="M1735,847L1649,894L1814,977Z" fill="#85b7d8" stroke="#85b7d8" stroke-width="1.51"/><path d="M1648,380L1667,543L1817,430Z" fill="#bfc9bb" stroke="#bfc9bb" stroke-width="1.51"/><path d="M1625,-209L1616,-31L1801,-170Z" fill="#bb7779" stroke="#bb7779" stroke-width="1.51"/><path d="M1649,894L1590,1021L1814,977Z" fill="#80b6d5" stroke="#80b6d5" stroke-width="1.51"/><path d="M1631,64L1681,238L1797,114Z" fill="#c69e92" stroke="#c69e92" stroke-width="1.51"/><path d="M1587,1142L1664,1281L1734,1130Z" fill="#6295c5" stroke="#6295c5" stroke-width="1.51"/><path d="M1590,1021L1587,1142L1734,1130Z" fill="#71a6ce" stroke="#71a6ce" stroke-width="1.51"/><path d="M1608,741L1649,894L1735,847Z" fill="#99c8e0" stroke="#99c8e0" stroke-width="1.51"/><path d="M1532,419L1537,509L1648,380Z" fill="#cdd5c0" stroke="#cdd5c0" stroke-width="1.51"/><path d="M1516,638L1608,741L1667,543Z" fill="#bddade" stroke="#bddade" stroke-width="1.51"/><path d="M1648,380L1537,509L1667,543Z" fill="#c7d5c3" stroke="#c7d5c3" stroke-width="1.51"/><path d="M1513,212L1648,380L1681,238Z" fill="#ccbea7" stroke="#ccbea7" stroke-width="1.51"/><path d="M1631,64L1513,212L1681,238Z" fill="#cfad9a" stroke="#cfad9a" stroke-width="1.51"/><path d="M1507,-181L1616,-31L1625,-209Z" fill="#c4807d" stroke="#c4807d" stroke-width="1.51"/><path d="M1513,212L1532,419L1648,380Z" fill="#cfcbb2" stroke="#cfcbb2" stroke-width="1.51"/><path d="M1608,741L1498,812L1649,894Z" fill="#a4d0e4" stroke="#a4d0e4" stroke-width="1.51"/><path d="M1587,1142L1516,1293L1664,1281Z" fill="#6890c4" stroke="#6890c4" stroke-width="1.51"/><path d="M1537,509L1516,638L1667,543Z" fill="#c8ded2" stroke="#c8ded2" stroke-width="1.51"/><path d="M1083,1247L872,1301L1337,1294Z" fill="#9ca3c4" stroke="#9ca3c4" stroke-width="1.51"/><path d="M1536,1084L1587,1142L1590,1021Z" fill="#7bafd3" stroke="#7bafd3" stroke-width="1.51"/><path d="M1489,1013L1590,1021L1649,894Z" fill="#8abedb" stroke="#8abedb" stroke-width="1.51"/><path d="M1498,812L1489,1013L1649,894Z" fill="#99cae1" stroke="#99cae1" stroke-width="1.51"/><path d="M1434,119L1513,212L1631,64Z" fill="#d8ae99" stroke="#d8ae99" stroke-width="1.51"/><path d="M1616,-31L1434,-20L1631,64Z" fill="#d2968b" stroke="#d2968b" stroke-width="1.51"/><path d="M1434,-20L1434,119L1631,64Z" fill="#daa293" stroke="#daa293" stroke-width="1.51"/><path d="M1507,-181L1434,-20L1616,-31Z" fill="#d08d85" stroke="#d08d85" stroke-width="1.51"/><path d="M1516,638L1498,812L1608,741Z" fill="#b7daea" stroke="#b7daea" stroke-width="1.51"/><path d="M1513,212L1380,281L1532,419Z" fill="#dacfb1" stroke="#dacfb1" stroke-width="1.51"/><path d="M1536,1084L1516,1293L1587,1142Z" fill="#72a1cc" stroke="#72a1cc" stroke-width="1.51"/><path d="M1489,1013L1536,1084L1590,1021Z" fill="#84b9d8" stroke="#84b9d8" stroke-width="1.51"/><path d="M687,1280L460,1309L872,1301Z" fill="#a98f99" stroke="#a98f99" stroke-width="1.51"/><path d="M1332,934L1489,1013L1498,812Z" fill="#a3d2e5" stroke="#a3d2e5" stroke-width="1.51"/><path d="M1391,-42L1434,-20L1507,-181Z" fill="#d89388" stroke="#d89388" stroke-width="1.51"/><path d="M1297,1185L1337,1294L1516,1293Z" fill="#7f9dcb" stroke="#7f9dcb" stroke-width="1.51"/><path d="M1334,669L1498,812L1516,638Z" fill="#c5e5f0" stroke="#c5e5f0" stroke-width="1.51"/><path d="M1297,1185L1516,1293L1536,1084Z" fill="#7ba7cf" stroke="#7ba7cf" stroke-width="1.51"/><path d="M1489,1013L1297,1185L1536,1084Z" fill="#88b8d8" stroke="#88b8d8" stroke-width="1.51"/><path d="M1532,419L1362,484L1537,509Z" fill="#d6e2c9" stroke="#d6e2c9" stroke-width="1.51"/><path d="M1362,484L1516,638L1537,509Z" fill="#d4e9d4" stroke="#d4e9d4" stroke-width="1.51"/><path d="M1380,281L1362,484L1532,419Z" fill="#dcdfc1" stroke="#dcdfc1" stroke-width="1.51"/><path d="M1362,484L1334,669L1516,638Z" fill="#d6ecdf" stroke="#d6ecdf" stroke-width="1.51"/><path d="M1434,119L1380,281L1513,212Z" fill="#dfc3a5" stroke="#dfc3a5" stroke-width="1.51"/><path d="M1296,373L1362,484L1380,281Z" fill="#e4e2c1" stroke="#e4e2c1" stroke-width="1.51"/><path d="M1314,-206L1391,-42L1507,-181Z" fill="#d58e84" stroke="#d58e84" stroke-width="1.51"/><path d="M1332,934L1297,1185L1489,1013Z" fill="#97c5de" stroke="#97c5de" stroke-width="1.51"/><path d="M1334,669L1293,894L1498,812Z" fill="#c0e2ee" stroke="#c0e2ee" stroke-width="1.51"/><path d="M1293,894L1332,934L1498,812Z" fill="#b1dbeb" stroke="#b1dbeb" stroke-width="1.51"/><path d="M1002,-236L1237,-176L1314,-206Z" fill="#de9287" stroke="#de9287" stroke-width="1.51"/><path d="M1129,1237L1083,1247L1337,1294Z" fill="#96a6cf" stroke="#96a6cf" stroke-width="1.51"/><path d="M1391,-42L1322,128L1434,-20Z" fill="#e4a594" stroke="#e4a594" stroke-width="1.51"/><path d="M1434,-20L1322,128L1434,119Z" fill="#e4ae99" stroke="#e4ae99" stroke-width="1.51"/><path d="M1322,128L1380,281L1434,119Z" fill="#e6c1a4" stroke="#e6c1a4" stroke-width="1.51"/><path d="M1162,989L1297,1185L1332,934Z" fill="#a4cce2" stroke="#a4cce2" stroke-width="1.51"/><path d="M1212,679L1293,894L1334,669Z" fill="#d1ebf4" stroke="#d1ebf4" stroke-width="1.51"/><path d="M1237,-176L1155,-30L1391,-42Z" fill="#e99c8c" stroke="#e99c8c" stroke-width="1.51"/><path d="M1155,-30L1223,57L1391,-42Z" fill="#eea894" stroke="#eea894" stroke-width="1.51"/><path d="M1314,-206L1237,-176L1391,-42Z" fill="#dd9287" stroke="#dd9287" stroke-width="1.51"/><path d="M1223,57L1322,128L1391,-42Z" fill="#ecad98" stroke="#ecad98" stroke-width="1.51"/><path d="M1212,679L1173,852L1293,894Z" fill="#cde9f3" stroke="#cde9f3" stroke-width="1.51"/><path d="M1131,218L1156,334L1296,373Z" fill="#f5dfba" stroke="#f5dfba" stroke-width="1.51"/><path d="M1162,989L1145,1109L1297,1185Z" fill="#a4c4e0" stroke="#a4c4e0" stroke-width="1.51"/><path d="M1212,679L1334,669L1362,484Z" fill="#dff1e5" stroke="#dff1e5" stroke-width="1.51"/><path d="M1136,559L1212,679L1362,484Z" fill="#eaf5e1" stroke="#eaf5e1" stroke-width="1.51"/><path d="M1322,128L1131,218L1380,281Z" fill="#efcdaa" stroke="#efcdaa" stroke-width="1.51"/><path d="M1131,218L1296,373L1380,281Z" fill="#eed9b6" stroke="#eed9b6" stroke-width="1.51"/><path d="M1296,373L1136,559L1362,484Z" fill="#ebefd0" stroke="#ebefd0" stroke-width="1.51"/><path d="M1293,894L1162,989L1332,934Z" fill="#b5d9e9" stroke="#b5d9e9" stroke-width="1.51"/><path d="M1297,1185L1129,1237L1337,1294Z" fill="#8fa7d1" stroke="#8fa7d1" stroke-width="1.51"/><path d="M1086,442L1136,559L1296,373Z" fill="#f4f2cd" stroke="#f4f2cd" stroke-width="1.51"/><path d="M1223,57L1131,218L1322,128Z" fill="#f5c1a3" stroke="#f5c1a3" stroke-width="1.51"/><path d="M1156,334L1086,442L1296,373Z" fill="#f4eac3" stroke="#f4eac3" stroke-width="1.51"/><path d="M1173,852L1162,989L1293,894Z" fill="#bee0ed" stroke="#bee0ed" stroke-width="1.51"/><path d="M1145,1109L1129,1237L1297,1185Z" fill="#9bb6d7" stroke="#9bb6d7" stroke-width="1.51"/><path d="M638,1279L460,1309L687,1280Z" fill="#ab8991" stroke="#ab8991" stroke-width="1.51"/><path d="M1056,-91L1155,-30L1237,-176Z" fill="#ef9e86" stroke="#ef9e86" stroke-width="1.51"/><path d="M1002,-236L1056,-91L1237,-176Z" fill="#e8987e" stroke="#e8987e" stroke-width="1.51"/><path d="M1045,863L1173,852L1212,679Z" fill="#d6edee" stroke="#d6edee" stroke-width="1.51"/><path d="M1155,-30L1011,65L1223,57Z" fill="#f9b191" stroke="#f9b191" stroke-width="1.51"/><path d="M1011,65L1131,218L1223,57Z" fill="#fbc199" stroke="#fbc199" stroke-width="1.51"/><path d="M1136,559L980,646L1212,679Z" fill="#eff7e1" stroke="#eff7e1" stroke-width="1.51"/><path d="M980,646L1045,863L1212,679Z" fill="#e5f4e9" stroke="#e5f4e9" stroke-width="1.51"/><path d="M281,-255L462,-222L718,-256Z" fill="#d96a43" stroke="#d96a43" stroke-width="1.51"/><path d="M1039,1145L1129,1237L1145,1109Z" fill="#a4bacf" stroke="#a4bacf" stroke-width="1.51"/><path d="M1131,218L1027,262L1156,334Z" fill="#fadcaa" stroke="#fadcaa" stroke-width="1.51"/><path d="M1048,1038L1145,1109L1162,989Z" fill="#b2cfda" stroke="#b2cfda" stroke-width="1.51"/><path d="M1045,863L1162,989L1173,852Z" fill="#c7e3e6" stroke="#c7e3e6" stroke-width="1.51"/><path d="M1045,863L1048,1038L1162,989Z" fill="#c0dcdc" stroke="#c0dcdc" stroke-width="1.51"/><path d="M1039,1145L1083,1247L1129,1237Z" fill="#a1b2c8" stroke="#a1b2c8" stroke-width="1.51"/><path d="M1056,-91L1011,65L1155,-30Z" fill="#f7ac86" stroke="#f7ac86" stroke-width="1.51"/><path d="M1027,262L1086,442L1156,334Z" fill="#f9e7b3" stroke="#f9e7b3" stroke-width="1.51"/><path d="M1011,65L1027,262L1131,218Z" fill="#fdcf98" stroke="#fdcf98" stroke-width="1.51"/><path d="M1086,442L981,520L1136,559Z" fill="#f9f9c8" stroke="#f9f9c8" stroke-width="1.51"/><path d="M1048,1038L1039,1145L1145,1109Z" fill="#aec7d1" stroke="#aec7d1" stroke-width="1.51"/><path d="M981,520L980,646L1136,559Z" fill="#f8fbce" stroke="#f8fbce" stroke-width="1.51"/><path d="M1011,65L912,237L1027,262Z" fill="#ffd290" stroke="#ffd290" stroke-width="1.51"/><path d="M980,646L878,713L1045,863Z" fill="#ebf6db" stroke="#ebf6db" stroke-width="1.51"/><path d="M912,508L981,520L1086,442Z" fill="#fdf9bc" stroke="#fdf9bc" stroke-width="1.51"/><path d="M844,437L912,508L1086,442Z" fill="#fff6b2" stroke="#fff6b2" stroke-width="1.51"/><path d="M1027,262L844,437L1086,442Z" fill="#feefab" stroke="#feefab" stroke-width="1.51"/><path d="M1045,863L861,879L1048,1038Z" fill="#cee4d4" stroke="#cee4d4" stroke-width="1.51"/><path d="M1039,1145L887,1175L1083,1247Z" fill="#a9b8c1" stroke="#a9b8c1" stroke-width="1.51"/><path d="M887,1175L872,1301L1083,1247Z" fill="#a9adb6" stroke="#a9adb6" stroke-width="1.51"/><path d="M912,237L844,437L1027,262Z" fill="#ffe49b" stroke="#ffe49b" stroke-width="1.51"/><path d="M878,713L861,879L1045,863Z" fill="#e0eed4" stroke="#e0eed4" stroke-width="1.51"/><path d="M887,1175L1039,1145L1048,1038Z" fill="#b3c5c6" stroke="#b3c5c6" stroke-width="1.51"/><path d="M861,879L841,995L1048,1038Z" fill="#cadbc9" stroke="#cadbc9" stroke-width="1.51"/><path d="M1002,-236L903,-156L1056,-91Z" fill="#ed9b72" stroke="#ed9b72" stroke-width="1.51"/><path d="M870,-49L1011,65L1056,-91Z" fill="#fbae7b" stroke="#fbae7b" stroke-width="1.51"/><path d="M903,-156L870,-49L1056,-91Z" fill="#f6a26f" stroke="#f6a26f" stroke-width="1.51"/><path d="M841,995L887,1175L1048,1038Z" fill="#bcccc3" stroke="#bcccc3" stroke-width="1.51"/><path d="M853,51L912,237L1011,65Z" fill="#ffc383" stroke="#ffc383" stroke-width="1.51"/><path d="M912,508L980,646L981,520Z" fill="#fefec2" stroke="#fefec2" stroke-width="1.51"/><path d="M718,-256L903,-156L1002,-236Z" fill="#e49166" stroke="#e49166" stroke-width="1.51"/><path d="M870,-49L853,51L1011,65Z" fill="#feb278" stroke="#feb278" stroke-width="1.51"/><path d="M88,1297L-182,1320L291,1330Z" fill="#a14868" stroke="#a14868" stroke-width="1.51"/><path d="M776,587L878,713L912,508Z" fill="#fbf5c0" stroke="#fbf5c0" stroke-width="1.51"/><path d="M912,508L878,713L980,646Z" fill="#f8f9ca" stroke="#f8f9ca" stroke-width="1.51"/><path d="M732,83L731,225L853,51Z" fill="#ffba74" stroke="#ffba74" stroke-width="1.51"/><path d="M787,844L861,879L878,713Z" fill="#e2e9cc" stroke="#e2e9cc" stroke-width="1.51"/><path d="M841,995L756,1153L887,1175Z" fill="#b8c0b7" stroke="#b8c0b7" stroke-width="1.51"/><path d="M728,337L844,437L912,237Z" fill="#ffe195" stroke="#ffe195" stroke-width="1.51"/><path d="M731,225L728,337L912,237Z" fill="#ffd487" stroke="#ffd487" stroke-width="1.51"/><path d="M853,51L731,225L912,237Z" fill="#ffc77f" stroke="#ffc77f" stroke-width="1.51"/><path d="M844,437L776,587L912,508Z" fill="#fff4af" stroke="#fff4af" stroke-width="1.51"/><path d="M756,1153L872,1301L887,1175Z" fill="#acadaf" stroke="#acadaf" stroke-width="1.51"/><path d="M714,-84L870,-49L903,-156Z" fill="#f49b65" stroke="#f49b65" stroke-width="1.51"/><path d="M718,-256L714,-84L903,-156Z" fill="#ea8f5e" stroke="#ea8f5e" stroke-width="1.51"/><path d="M740,690L787,844L878,713Z" fill="#ecebca" stroke="#ecebca" stroke-width="1.51"/><path d="M776,587L740,690L878,713Z" fill="#f6f0c5" stroke="#f6f0c5" stroke-width="1.51"/><path d="M729,1002L756,1153L841,995Z" fill="#c0c7b6" stroke="#c0c7b6" stroke-width="1.51"/><path d="M756,1153L687,1280L872,1301Z" fill="#aba2a6" stroke="#aba2a6" stroke-width="1.51"/><path d="M787,844L841,995L861,879Z" fill="#d4dec5" stroke="#d4dec5" stroke-width="1.51"/><path d="M714,-84L853,51L870,-49Z" fill="#f9a46a" stroke="#f9a46a" stroke-width="1.51"/><path d="M714,-84L732,83L853,51Z" fill="#fba86a" stroke="#fba86a" stroke-width="1.51"/><path d="M787,844L729,1002L841,995Z" fill="#cfd6bf" stroke="#cfd6bf" stroke-width="1.51"/><path d="M728,337L776,587L844,437Z" fill="#ffeba1" stroke="#ffeba1" stroke-width="1.51"/><path d="M729,1002L635,1142L756,1153Z" fill="#bbb9ac" stroke="#bbb9ac" stroke-width="1.51"/><path d="M728,337L587,546L776,587Z" fill="#ffe89e" stroke="#ffe89e" stroke-width="1.51"/><path d="M628,1008L729,1002L787,844Z" fill="#cfd1b7" stroke="#cfd1b7" stroke-width="1.51"/><path d="M550,794L628,1008L787,844Z" fill="#dad4b6" stroke="#dad4b6" stroke-width="1.51"/><path d="M740,690L550,794L787,844Z" fill="#e9e1be" stroke="#e9e1be" stroke-width="1.51"/><path d="M574,337L587,546L728,337Z" fill="#ffda8b" stroke="#ffda8b" stroke-width="1.51"/><path d="M600,668L740,690L776,587Z" fill="#f7eab9" stroke="#f7eab9" stroke-width="1.51"/><path d="M587,546L600,668L776,587Z" fill="#fce6ab" stroke="#fce6ab" stroke-width="1.51"/><path d="M541,-161L714,-84L718,-256Z" fill="#e88553" stroke="#e88553" stroke-width="1.51"/><path d="M628,1008L635,1142L729,1002Z" fill="#c2bdab" stroke="#c2bdab" stroke-width="1.51"/><path d="M605,72L731,225L732,83Z" fill="#fdb56d" stroke="#fdb56d" stroke-width="1.51"/><path d="M714,-84L605,72L732,83Z" fill="#faa163" stroke="#faa163" stroke-width="1.51"/><path d="M600,668L550,794L740,690Z" fill="#f3dfbb" stroke="#f3dfbb" stroke-width="1.51"/><path d="M635,1142L687,1280L756,1153Z" fill="#b0a7a3" stroke="#b0a7a3" stroke-width="1.51"/><path d="M576,231L574,337L728,337Z" fill="#ffcc7c" stroke="#ffcc7c" stroke-width="1.51"/><path d="M576,231L728,337L731,225Z" fill="#fecb7c" stroke="#fecb7c" stroke-width="1.51"/><path d="M605,72L576,231L731,225Z" fill="#feb86d" stroke="#feb86d" stroke-width="1.51"/><path d="M635,1142L638,1279L687,1280Z" fill="#ae9a9c" stroke="#ae9a9c" stroke-width="1.51"/><path d="M546,-64L605,72L714,-84Z" fill="#f69459" stroke="#f69459" stroke-width="1.51"/><path d="M541,-161L546,-64L714,-84Z" fill="#ef864f" stroke="#ef864f" stroke-width="1.51"/><path d="M462,-222L541,-161L718,-256Z" fill="#df784b" stroke="#df784b" stroke-width="1.51"/><path d="M574,337L425,362L587,546Z" fill="#ffd082" stroke="#ffd082" stroke-width="1.51"/><path d="M550,794L418,1001L628,1008Z" fill="#d5c1a6" stroke="#d5c1a6" stroke-width="1.51"/><path d="M628,1008L460,1127L635,1142Z" fill="#bfad9f" stroke="#bfad9f" stroke-width="1.51"/><path d="M635,1142L460,1127L638,1279Z" fill="#b39d99" stroke="#b39d99" stroke-width="1.51"/><path d="M460,1127L460,1309L638,1279Z" fill="#b08c8f" stroke="#b08c8f" stroke-width="1.51"/><path d="M418,1001L460,1127L628,1008Z" fill="#c5ae9c" stroke="#c5ae9c" stroke-width="1.51"/><path d="M391,846L418,1001L550,794Z" fill="#debfa2" stroke="#debfa2" stroke-width="1.51"/><path d="M406,47L446,262L576,231Z" fill="#fda85d" stroke="#fda85d" stroke-width="1.51"/><path d="M421,706L550,794L600,668Z" fill="#f3d3af" stroke="#f3d3af" stroke-width="1.51"/><path d="M587,546L385,588L600,668Z" fill="#fdd89f" stroke="#fdd89f" stroke-width="1.51"/><path d="M385,588L421,706L600,668Z" fill="#fad1a3" stroke="#fad1a3" stroke-width="1.51"/><path d="M546,-64L425,-13L605,72Z" fill="#f78d52" stroke="#f78d52" stroke-width="1.51"/><path d="M425,-13L406,47L605,72Z" fill="#f88d51" stroke="#f88d51" stroke-width="1.51"/><path d="M406,47L576,231L605,72Z" fill="#fca15d" stroke="#fca15d" stroke-width="1.51"/><path d="M425,362L385,588L587,546Z" fill="#ffd188" stroke="#ffd188" stroke-width="1.51"/><path d="M446,262L574,337L576,231Z" fill="#febe6f" stroke="#febe6f" stroke-width="1.51"/><path d="M446,262L425,362L574,337Z" fill="#febf70" stroke="#febf70" stroke-width="1.51"/><path d="M462,-222L425,-13L541,-161Z" fill="#ea7442" stroke="#ea7442" stroke-width="1.51"/><path d="M541,-161L425,-13L546,-64Z" fill="#ef7f49" stroke="#ef7f49" stroke-width="1.51"/><path d="M421,706L391,846L550,794Z" fill="#ecc7a7" stroke="#ecc7a7" stroke-width="1.51"/><path d="M300,340L244,557L385,588Z" fill="#ffbd7d" stroke="#ffbd7d" stroke-width="1.51"/><path d="M230,90L229,246L406,47Z" fill="#f8854d" stroke="#f8854d" stroke-width="1.51"/><path d="M300,340L385,588L425,362Z" fill="#ffbe79" stroke="#ffbe79" stroke-width="1.51"/><path d="M406,47L229,246L446,262Z" fill="#fb9a57" stroke="#fb9a57" stroke-width="1.51"/><path d="M283,1140L291,1330L460,1309Z" fill="#ae7380" stroke="#ae7380" stroke-width="1.51"/><path d="M283,1140L460,1309L460,1127Z" fill="#b48989" stroke="#b48989" stroke-width="1.51"/><path d="M418,1001L283,1140L460,1127Z" fill="#c19990" stroke="#c19990" stroke-width="1.51"/><path d="M261,-31L425,-13L462,-222Z" fill="#ec6d40" stroke="#ec6d40" stroke-width="1.51"/><path d="M281,-255L261,-31L462,-222Z" fill="#e15c3a" stroke="#e15c3a" stroke-width="1.51"/><path d="M391,846L303,964L418,1001Z" fill="#d6ae99" stroke="#d6ae99" stroke-width="1.51"/><path d="M229,246L300,340L446,262Z" fill="#fca561" stroke="#fca561" stroke-width="1.51"/><path d="M300,340L425,362L446,262Z" fill="#fdb46b" stroke="#fdb46b" stroke-width="1.51"/><path d="M303,964L283,1140L418,1001Z" fill="#c89c91" stroke="#c89c91" stroke-width="1.51"/><path d="M385,588L241,635L421,706Z" fill="#fbc298" stroke="#fbc298" stroke-width="1.51"/><path d="M236,840L391,846L421,706Z" fill="#eab99f" stroke="#eab99f" stroke-width="1.51"/><path d="M241,635L236,840L421,706Z" fill="#f4b89e" stroke="#f4b89e" stroke-width="1.51"/><path d="M261,-31L406,47L425,-13Z" fill="#f37846" stroke="#f37846" stroke-width="1.51"/><path d="M261,-31L230,90L406,47Z" fill="#f57445" stroke="#f57445" stroke-width="1.51"/><path d="M178,408L244,557L300,340Z" fill="#feae71" stroke="#feae71" stroke-width="1.51"/><path d="M236,840L303,964L391,846Z" fill="#dead98" stroke="#dead98" stroke-width="1.51"/><path d="M244,557L241,635L385,588Z" fill="#fdbc8c" stroke="#fdbc8c" stroke-width="1.51"/><path d="M132,656L236,840L241,635Z" fill="#f4ae99" stroke="#f4ae99" stroke-width="1.51"/><path d="M137,-166L155,-53L261,-31Z" fill="#e65134" stroke="#e65134" stroke-width="1.51"/><path d="M-35,-241L137,-166L281,-255Z" fill="#cf392e" stroke="#cf392e" stroke-width="1.51"/><path d="M137,-166L261,-31L281,-255Z" fill="#e04d34" stroke="#e04d34" stroke-width="1.51"/><path d="M283,1140L88,1297L291,1330Z" fill="#ad6578" stroke="#ad6578" stroke-width="1.51"/><path d="M236,840L90,997L303,964Z" fill="#d59b8e" stroke="#d59b8e" stroke-width="1.51"/><path d="M100,1091L283,1140L303,964Z" fill="#c48a87" stroke="#c48a87" stroke-width="1.51"/><path d="M90,997L100,1091L303,964Z" fill="#c78c86" stroke="#c78c86" stroke-width="1.51"/><path d="M229,246L178,408L300,340Z" fill="#fba162" stroke="#fba162" stroke-width="1.51"/><path d="M111,856L90,997L236,840Z" fill="#d8998c" stroke="#d8998c" stroke-width="1.51"/><path d="M100,1091L88,1297L283,1140Z" fill="#b26f79" stroke="#b26f79" stroke-width="1.51"/><path d="M140,128L229,246L230,90Z" fill="#f57f4a" stroke="#f57f4a" stroke-width="1.51"/><path d="M136,256L178,408L229,246Z" fill="#f8975b" stroke="#f8975b" stroke-width="1.51"/><path d="M132,656L111,856L236,840Z" fill="#e8a592" stroke="#e8a592" stroke-width="1.51"/><path d="M155,-53L230,90L261,-31Z" fill="#ef633d" stroke="#ef633d" stroke-width="1.51"/><path d="M38,1240L88,1297L100,1091Z" fill="#aa6171" stroke="#aa6171" stroke-width="1.51"/><path d="M140,128L136,256L229,246Z" fill="#f6874d" stroke="#f6874d" stroke-width="1.51"/><path d="M155,-53L140,128L230,90Z" fill="#f16840" stroke="#f16840" stroke-width="1.51"/><path d="M103,587L132,656L241,635Z" fill="#f7ad88" stroke="#f7ad88" stroke-width="1.51"/><path d="M103,587L241,635L244,557Z" fill="#fbb285" stroke="#fbb285" stroke-width="1.51"/><path d="M178,408L103,587L244,557Z" fill="#fcaf77" stroke="#fcaf77" stroke-width="1.51"/><path d="M11,648L111,856L132,656Z" fill="#eda190" stroke="#eda190" stroke-width="1.51"/><path d="M-39,48L140,128L155,-53Z" fill="#eb5b39" stroke="#eb5b39" stroke-width="1.51"/><path d="M136,256L41,410L178,408Z" fill="#f69a5e" stroke="#f69a5e" stroke-width="1.51"/><path d="M41,410L103,587L178,408Z" fill="#f8a46c" stroke="#f8a46c" stroke-width="1.51"/><path d="M41,410L-9,519L103,587Z" fill="#f6a16d" stroke="#f6a16d" stroke-width="1.51"/><path d="M-62,238L136,256L140,128Z" fill="#f07d47" stroke="#f07d47" stroke-width="1.51"/><path d="M137,-166L-50,-23L155,-53Z" fill="#e0442e" stroke="#e0442e" stroke-width="1.51"/><path d="M-50,-23L-39,48L155,-53Z" fill="#e34a31" stroke="#e34a31" stroke-width="1.51"/><path d="M11,648L-44,882L111,856Z" fill="#e09689" stroke="#e09689" stroke-width="1.51"/><path d="M-62,238L41,410L136,256Z" fill="#f18951" stroke="#f18951" stroke-width="1.51"/><path d="M-35,-241L-50,-23L137,-166Z" fill="#d43028" stroke="#d43028" stroke-width="1.51"/><path d="M-39,48L-62,238L140,128Z" fill="#eb683d" stroke="#eb683d" stroke-width="1.51"/><path d="M4,1092L38,1240L100,1091Z" fill="#b26b74" stroke="#b26b74" stroke-width="1.51"/><path d="M-44,882L90,997L111,856Z" fill="#d18e85" stroke="#d18e85" stroke-width="1.51"/><path d="M103,587L11,648L132,656Z" fill="#f4a584" stroke="#f4a584" stroke-width="1.51"/><path d="M-44,882L-42,995L90,997Z" fill="#c9837e" stroke="#c9837e" stroke-width="1.51"/><path d="M90,997L4,1092L100,1091Z" fill="#bd7b7c" stroke="#bd7b7c" stroke-width="1.51"/><path d="M-9,519L11,648L103,587Z" fill="#f4a279" stroke="#f4a279" stroke-width="1.51"/><path d="M38,1240L-182,1320L88,1297Z" fill="#9e4766" stroke="#9e4766" stroke-width="1.51"/><path d="M-143,796L-44,882L11,648Z" fill="#dc9187" stroke="#dc9187" stroke-width="1.51"/><path d="M-42,995L4,1092L90,997Z" fill="#bf7c7b" stroke="#bf7c7b" stroke-width="1.51"/><path d="M-133,141L-62,238L-39,48Z" fill="#e1623d" stroke="#e1623d" stroke-width="1.51"/><path d="M-141,-94L-50,-23L-35,-241Z" fill="#cf2a27" stroke="#cf2a27" stroke-width="1.51"/><path d="M4,1092L-111,1098L38,1240Z" fill="#ad6471" stroke="#ad6471" stroke-width="1.51"/><path d="M-181,400L-9,519L41,410Z" fill="#ec9361" stroke="#ec9361" stroke-width="1.51"/><path d="M-62,238L-181,400L41,410Z" fill="#e88855" stroke="#e88855" stroke-width="1.51"/><path d="M-132,633L-143,796L11,648Z" fill="#e29487" stroke="#e29487" stroke-width="1.51"/><path d="M-111,1098L-182,1320L38,1240Z" fill="#9d526a" stroke="#9d526a" stroke-width="1.51"/><path d="M-133,141L-119,203L-62,238Z" fill="#e06c41" stroke="#e06c41" stroke-width="1.51"/><path d="M-181,400L-180,508L-9,519Z" fill="#e59266" stroke="#e59266" stroke-width="1.51"/><path d="M-42,995L-111,1098L4,1092Z" fill="#b57177" stroke="#b57177" stroke-width="1.51"/><path d="M-9,519L-132,633L11,648Z" fill="#ed9b79" stroke="#ed9b79" stroke-width="1.51"/><path d="M-180,508L-132,633L-9,519Z" fill="#e89870" stroke="#e89870" stroke-width="1.51"/><path d="M-44,882L-142,980L-42,995Z" fill="#c17f7e" stroke="#c17f7e" stroke-width="1.51"/><path d="M-142,980L-111,1098L-42,995Z" fill="#b57479" stroke="#b57479" stroke-width="1.51"/><path d="M-182,-236L-141,-94L-35,-241Z" fill="#bf1f27" stroke="#bf1f27" stroke-width="1.51"/><path d="M-119,203L-181,400L-62,238Z" fill="#e1794c" stroke="#e1794c" stroke-width="1.51"/><path d="M-50,-23L-133,141L-39,48Z" fill="#de4e36" stroke="#de4e36" stroke-width="1.51"/><path d="M-141,-94L-133,141L-50,-23Z" fill="#d74331" stroke="#d74331" stroke-width="1.51"/><path d="M-143,796L-142,980L-44,882Z" fill="#c78582" stroke="#c78582" stroke-width="1.51"/><path d="M-142,980L-182,1320L-111,1098Z" fill="#a15f71" stroke="#a15f71" stroke-width="1.51"/><path d="M-133,141L-181,400L-119,203Z" fill="#de7348" stroke="#de7348" stroke-width="1.51"/><path d="M-141,-94L-182,-236L-133,141Z" fill="#cc322c" stroke="#cc322c" stroke-width="1.51"/><path d="M-182,-236L-181,400L-133,141Z" fill="#d65439" stroke="#d65439" stroke-width="1.51"/><path d="M-180,508L-143,796L-132,633Z" fill="#de927f" stroke="#de927f" stroke-width="1.51"/><path d="M-143,796L-180,508L-142,980Z" fill="#d28b86" stroke="#d28b86" stroke-width="1.51"/><path d="M-180,508L-182,1320L-142,980Z" fill="#b97b7e" stroke="#b97b7e" stroke-width="1.51"/></svg>